<?xml version="1.0" encoding="UTF-8" standalone="no"?>
<!-- Created with Inkscape (http://www.inkscape.org/) -->

<svg
   width="500"
   height="500"
   viewBox="0 0 500 500"
   version="1.1"
   id="svg1"
   inkscape:version="1.4 (e7c3feb100, 2024-10-09)"
   sodipodi:docname="pomo_logo.svg"
   inkscape:export-filename="pomo_logo.png"
   inkscape:export-xdpi="96"
   inkscape:export-ydpi="96"
   xmlns:inkscape="http://www.inkscape.org/namespaces/inkscape"
   xmlns:sodipodi="http://sodipodi.sourceforge.net/DTD/sodipodi-0.dtd"
   xmlns="http://www.w3.org/2000/svg"
   xmlns:svg="http://www.w3.org/2000/svg">
  <sodipodi:namedview
     id="namedview1"
     pagecolor="#ffffff"
     bordercolor="#000000"
     borderopacity="0.25"
     inkscape:showpageshadow="2"
     inkscape:pageopacity="0.0"
     inkscape:pagecheckerboard="true"
     inkscape:deskcolor="#d1d1d1"
     inkscape:document-units="px"
     inkscape:zoom="1.1019851"
     inkscape:cx="112.97793"
     inkscape:cy="254.08692"
     inkscape:window-width="1811"
     inkscape:window-height="1367"
     inkscape:window-x="0"
     inkscape:window-y="0"
     inkscape:window-maximized="1"
     inkscape:current-layer="layer1" />
  <defs
     id="defs1" />
  <g
     inkscape:label="Layer 1"
     inkscape:groupmode="layer"
     id="layer1">
    <path
       style="fill:#ff5555;stroke:#2b0000;stroke-width:20;stroke-linecap:round;stroke-linejoin:round;stroke-dasharray:none"
       d="M 259.07791,138.84035 C 167.60378,77.587254 45.2267,162.33281 44.46521,271.06997 43.828116,362.04392 112.80671,427.79962 250,428.31794 397.89955,428.8767 467.72095,370.41443 469.60707,283.57577 471.93813,176.25172 369.43572,82.578247 259.07791,138.84035 Z"
       id="path3"
       sodipodi:nodetypes="csssc" />
    <ellipse
       style="fill:#ff8080;stroke:none;stroke-width:4.64151;stroke-linecap:round;stroke-linejoin:round;stroke-dasharray:none"
       id="path5-2"
       cx="230.30844"
       cy="-138.1012"
       rx="34.39809"
       ry="34.087372"
       transform="matrix(-0.08185755,0.99664404,-0.98594645,0.16706165,0,0)" />
    <path
       style="fill:none;stroke:#2b0000;stroke-width:20;stroke-linecap:round;stroke-linejoin:round;stroke-dasharray:none"
       d="m 104.84059,280.85341 c -20.780694,28.94995 -2.02955,70.95067 42.86034,78.15892 42.042,6.75095 84.83106,-7.77 96.25829,-36.49352 6.04078,29.11848 48.07241,49.21338 84.10912,50.43509 48.99933,1.66117 82.21938,-29.358 70.71662,-65.8618"
       id="path1"
       sodipodi:nodetypes="cscsc" />
    <circle
       style="fill:#2b0000;stroke:#2b0000;stroke-width:20;stroke-linecap:round;stroke-linejoin:round;stroke-dasharray:none"
       id="path2-5"
       cx="341.87973"
       cy="288.96362"
       r="25.09996" />
    <circle
       style="fill:#2b0000;stroke:#2b0000;stroke-width:20;stroke-linecap:round;stroke-linejoin:round;stroke-dasharray:none"
       id="path2-5-7"
       cx="165.1122"
       cy="277.56509"
       r="25.09996" />
    <path
       style="fill:#5aa02c;stroke:#17280b;stroke-width:20;stroke-linecap:round;stroke-linejoin:round;stroke-dasharray:none"
       d="m 259.79106,41.597752 c 0,0 -18.42387,29.770786 -14.3315,72.129598 C 207.47664,85.272211 162.63671,69.5564 162.63671,69.5564 c 0,0 25.56139,23.149941 35.68949,46.29988 -50.88164,-5.54634 -89.70603,13.98642 -89.70603,13.98642 0,0 52.32853,2.41145 96.94039,14.95101 -31.34888,10.61039 -47.0693,36.65408 -47.0693,36.65408 0,0 56.95624,-27.24942 90.95772,-29.66088 49.91706,11.57497 82.95396,52.32853 82.95396,52.32853 0,0 -1.44687,-33.27805 -38.58324,-54.98112 18.56819,-20.73849 87.29457,-34.24262 87.29457,-34.24262 0,0 -62.06417,-9.87986 -113.91039,1.93626 9.40467,-42.000641 32.82293,-61.740273 32.82293,-61.740273 z"
       id="path4"
       sodipodi:nodetypes="cccccccccccccc" />
  </g>
</svg>
