<?xml version="1.0" encoding="UTF-8" standalone="no"?>
<!-- Created with Inkscape (http://www.inkscape.org/) -->

<svg
   width="500"
   height="500"
   viewBox="0 0 500 500"
   version="1.1"
   id="svg1"
   inkscape:version="1.4 (e7c3feb100, 2024-10-09)"
   sodipodi:docname="pomo_logo.svg"
   inkscape:export-filename="pomo_logo.png"
   inkscape:export-xdpi="96"
   inkscape:export-ydpi="96"
   xmlns:inkscape="http://www.inkscape.org/namespaces/inkscape"
   xmlns:sodipodi="http://sodipodi.sourceforge.net/DTD/sodipodi-0.dtd"
   xmlns="http://www.w3.org/2000/svg"
   xmlns:svg="http://www.w3.org/2000/svg">
  <sodipodi:namedview
     id="namedview1"
     pagecolor="#ffffff"
     bordercolor="#000000"
     borderopacity="0.25"
     inkscape:showpageshadow="2"
     inkscape:pageopacity="0.0"
     inkscape:pagecheckerboard="true"
     inkscape:deskcolor="#d1d1d1"
     inkscape:document-units="px"
     inkscape:zoom="1.1019851"
     inkscape:cx="112.97793"
     inkscape:cy="254.08691"
     inkscape:window-width="2536"
     inkscape:window-height="1367"
     inkscape:window-x="0"
     inkscape:window-y="0"
     inkscape:window-maximized="1"
     inkscape:current-layer="layer1" />
  <defs
     id="defs1" />
  <g
     inkscape:label="Layer 1"
     inkscape:groupmode="layer"
     id="layer1">
    <path
       style="fill:#ff5555;stroke:#000000;stroke-width:10;stroke-linecap:round;stroke-linejoin:round;stroke-dasharray:none"
       d="M 259.07791,138.84035 C 167.60378,77.587254 45.2267,162.33281 44.46521,271.06997 43.828116,362.04392 112.80671,427.79962 250,428.31794 397.89955,428.8767 467.72095,370.41443 469.60707,283.57577 471.93813,176.25172 369.43572,82.578247 259.07791,138.84035 Z"
       id="path3"
       sodipodi:nodetypes="csssc" />
    <ellipse
       style="fill:#ff8080;stroke:none;stroke-width:3.78607;stroke-linecap:round;stroke-linejoin:round;stroke-dasharray:none"
       id="path5-2"
       cx="214.18501"
       cy="-139.68643"
       rx="28.058422"
       ry="27.804972"
       transform="matrix(-0.08185755,0.99664404,-0.98594645,0.16706165,0,0)" />
    <path
       style="fill:none;stroke:#000000;stroke-width:10;stroke-linecap:round;stroke-linejoin:round;stroke-dasharray:none"
       d="m 104.84059,280.85341 c -20.780694,28.94995 -2.02955,70.95067 42.86034,78.15892 42.042,6.75095 84.83106,-7.77 96.25829,-36.49352 6.04078,29.11848 48.07241,49.21338 84.10912,50.43509 48.99933,1.66117 82.21938,-29.358 70.71662,-65.8618"
       id="path1"
       sodipodi:nodetypes="cscsc" />
    <circle
       style="fill:#000000;stroke:#000000;stroke-width:10;stroke-linecap:round;stroke-linejoin:round;stroke-dasharray:none"
       id="path2-5"
       cx="353.67664"
       cy="285.3338"
       r="25.09996" />
    <circle
       style="fill:#000000;stroke:#000000;stroke-width:10;stroke-linecap:round;stroke-linejoin:round;stroke-dasharray:none"
       id="path2-5-7"
       cx="152.40785"
       cy="275.75018"
       r="25.09996" />
    <path
       style="fill:#2ca05a;stroke:#000000;stroke-width:10;stroke-linecap:round;stroke-linejoin:round;stroke-dasharray:none"
       d="m 258.9071,46.410249 c 0,0 -17.33271,28.007602 -13.48271,67.857701 -35.73337,-26.769876 -77.91764,-41.554913 -77.91764,-41.554913 0,0 24.04751,21.778878 33.57577,43.557753 -47.86816,-5.21785 -84.39316,13.15807 -84.39316,13.15807 0,0 49.22935,2.26863 91.19906,14.06553 -29.49223,9.98199 -44.2816,34.48323 -44.2816,34.48323 0,0 53.58299,-25.63556 85.57072,-27.9042 46.9607,10.88944 78.04098,49.22935 78.04098,49.22935 0,0 -1.36118,-31.30714 -36.29813,-51.72484 17.46848,-19.51025 82.12452,-32.21459 82.12452,-32.21459 0,0 -58.3884,-9.29472 -107.16401,1.82158 8.84767,-39.513136 30.87898,-58.083682 30.87898,-58.083682 z"
       id="path4"
       sodipodi:nodetypes="cccccccccccccc" />
  </g>
</svg>
